<svg width="19" height="8" viewBox="0 0 19 8" fill="none" xmlns="http://www.w3.org/2000/svg">
<path d="M1.91353 5.13333C1.67761 5.13333 1.46696 5.08954 1.28159 5.00197C1.10043 4.90979 0.946659 4.78304 0.82027 4.62172C0.693881 4.46041 0.596983 4.26452 0.529576 4.03407C0.466381 3.80362 0.434784 3.54781 0.434784 3.26666C0.434784 2.98551 0.468488 2.72971 0.535895 2.49925C0.603302 2.2688 0.7002 2.07292 0.826589 1.9116C0.952978 1.74567 1.10675 1.61892 1.28791 1.53135C1.46907 1.44378 1.6755 1.39999 1.90721 1.39999C2.22319 1.39999 2.48018 1.47604 2.67819 1.62814C2.8762 1.78024 3.02154 1.97843 3.11423 2.22271L2.70978 2.45777C2.6508 2.27341 2.5518 2.13053 2.41277 2.02913C2.27795 1.92773 2.10944 1.87703 1.90721 1.87703C1.75976 1.87703 1.62705 1.90469 1.50909 1.95999C1.39534 2.01069 1.29844 2.08444 1.21839 2.18123C1.13835 2.27802 1.07726 2.39324 1.03513 2.52691C0.997214 2.66057 0.978256 2.80575 0.978256 2.96246V3.57086C0.978256 3.72757 0.997214 3.87275 1.03513 4.00641C1.07726 4.14008 1.13835 4.2553 1.21839 4.35209C1.29844 4.44888 1.39745 4.52493 1.51541 4.58024C1.63337 4.63094 1.76819 4.65629 1.91985 4.65629C2.13893 4.65629 2.32008 4.60098 2.46333 4.49036C2.60657 4.37975 2.72032 4.22765 2.80458 4.03407L3.16478 4.3037C3.06789 4.54337 2.91622 4.74156 2.70978 4.89827C2.50756 5.05497 2.24214 5.13333 1.91353 5.13333Z" fill="white"/>
<path d="M5.58898 5.13333C5.36148 5.13333 5.15505 5.08954 4.96968 5.00197C4.78852 4.9144 4.63264 4.78995 4.50204 4.62864C4.37565 4.46271 4.27875 4.26683 4.21134 4.04098C4.14393 3.81053 4.11023 3.55242 4.11023 3.26666C4.11023 2.98551 4.14393 2.72971 4.21134 2.49925C4.27875 2.2688 4.37565 2.07292 4.50204 1.9116C4.63264 1.74567 4.78852 1.61892 4.96968 1.53135C5.15505 1.44378 5.36148 1.39999 5.58898 1.39999C5.81648 1.39999 6.02081 1.44378 6.20197 1.53135C6.38734 1.61892 6.54322 1.74567 6.66961 1.9116C6.80021 2.07292 6.89921 2.2688 6.96662 2.49925C7.03403 2.72971 7.06773 2.98551 7.06773 3.26666C7.06773 3.55242 7.03403 3.81053 6.96662 4.04098C6.89921 4.26683 6.80021 4.46271 6.66961 4.62864C6.54322 4.78995 6.38734 4.9144 6.20197 5.00197C6.02081 5.08954 5.81648 5.13333 5.58898 5.13333ZM5.58898 4.65629C5.87125 4.65629 6.09875 4.56411 6.27148 4.37975C6.44421 4.19539 6.53058 3.90962 6.53058 3.52246V3.01086C6.53058 2.6237 6.44421 2.33794 6.27148 2.15357C6.09875 1.96921 5.87125 1.87703 5.58898 1.87703C5.30671 1.87703 5.07921 1.96921 4.90648 2.15357C4.73375 2.33794 4.64738 2.6237 4.64738 3.01086V3.52246C4.64738 3.90962 4.73375 4.19539 4.90648 4.37975C5.07921 4.56411 5.30671 4.65629 5.58898 4.65629Z" fill="white"/>
<path d="M9.05589 5.05036L7.88679 1.48296H8.39866L8.8663 2.97629L9.37186 4.58715H9.39714L9.90269 2.97629L10.3703 1.48296H10.8696L9.70047 5.05036H9.05589Z" fill="white"/>
<path d="M12.9516 2.56348V3.43652H11V2.56348H12.9516Z" fill="#4F5DDE"/>
<path d="M14.5767 0V6H13.7914V0H14.5767Z" fill="#4F5DDE"/>
<path d="M16.896 6H15.427V0H16.9257C17.356 0 17.7258 0.120117 18.0348 0.360352C18.3452 0.598633 18.5837 0.941406 18.7502 1.38867C18.9167 1.83594 19 2.37109 19 2.99414C19 3.61914 18.916 4.15625 18.7481 4.60547C18.5816 5.05469 18.341 5.39941 18.0263 5.63965C17.7131 5.87988 17.3363 6 16.896 6ZM16.2123 5.05957H16.8579C17.1599 5.05957 17.4118 4.9834 17.6136 4.83105C17.8154 4.67676 17.9671 4.44727 18.0687 4.14258C18.1703 3.83594 18.2211 3.45313 18.2211 2.99414C18.2211 2.53516 18.1703 2.1543 18.0687 1.85156C17.9671 1.54688 17.8168 1.31934 17.6178 1.16895C17.4202 1.0166 17.1747 0.94043 16.8812 0.94043H16.2123V5.05957Z" fill="#4F5DDE"/>
<path fill-rule="evenodd" clip-rule="evenodd" d="M19 8H0L0 7H19V8Z" fill="#46A4B0"/>
</svg>

